<?xml version="1.0" encoding="UTF-8"?>
<svg width="459px" height="112px" viewBox="0 0 459 112" version="1.1" xmlns="http://www.w3.org/2000/svg" xmlns:xlink="http://www.w3.org/1999/xlink">
    <title>Artboard</title>
    <defs>
        <linearGradient x1="100%" y1="50%" x2="6.54858112e-15%" y2="50%" id="linearGradient-1">
            <stop stop-color="#77A3E3" offset="30.9167395%"></stop>
            <stop stop-color="#0F1939" offset="100%"></stop>
        </linearGradient>
    </defs>
    <g id="Artboard" stroke="none" stroke-width="1" fill="none" fill-rule="evenodd">
        <path d="M413.481095,26 C418.912214,26 423.438147,27.920904 427.737783,31.6497175 C427.850932,31.3107345 428.077228,30.6327684 428.303525,29.8418079 C428.869267,27.8079096 431.245382,26.5649718 433.960941,27.3559322 C436.563353,28.1468927 438.147429,30.7457627 437.355391,33.2316384 L425.701114,75.9435028 C428.416673,75.9435028 431.245382,72.1016949 433.3952,69.6158192 L450.2543,49.6158192 C451.951525,47.4689266 455.345975,47.0169492 457.382645,48.8248588 C459.419314,50.519774 459.532463,53.6836158 457.72209,55.7175141 L442.220769,74.1355932 C436.337056,80.9152542 431.924272,86 424.230185,86 C420.156846,86 417.441286,84.079096 416.196654,81.7062147 C412.123315,84.5310734 407.484233,86 402.618855,86 C395.943104,86 390.17254,83.1751412 386.664942,78.6553672 C382.817899,73.5706215 382.70475,67.2429379 384.401975,60.0112994 L379.536597,65.8870056 C379.269686,66.1831705 378.979454,66.440522 378.672016,66.6590603 L378.354146,67.035851 C378.164659,67.2615162 377.974499,67.4879896 377.783974,67.7149018 L376.925198,68.7377212 C372.247643,74.3089525 367.630411,79.8109239 367.630411,79.8109239 C363.341697,84.5510814 359.843009,86.018273 355.102852,86.018273 C350.362694,86.018273 345.848258,82.6324462 345.848258,78.1180105 C345.848258,77.1022625 345.961119,75.2964882 346.525424,73.1521312 L353.522799,47.8712913 C355.441434,41.2124987 353.522799,35.682315 346.412563,35.682315 C338.963744,35.682315 334.67503,42.2282467 332.756395,49.4513438 C332.15865,51.6124209 330.980191,55.9277632 329.77051,60.3672966 L329.330228,61.983531 C329.267003,62.2156781 329.203875,62.447492 329.140922,62.6786825 L328.952668,63.3700935 C327.733455,67.8483356 326.610766,71.9791705 326.167057,73.6107513 L326.104229,73.8417556 C326.046915,74.0524614 326.006379,74.2014015 325.984741,74.2807402 C325.081854,77.2151234 322.824636,78.7951759 319.664531,78.0051496 C316.95587,77.3279843 315.7144,75.0707664 316.504426,72.0235223 C316.504426,72.0235223 318.104341,66.0928042 319.722232,60.0954489 L319.942817,59.2777654 L320.028913,58.9586168 L320.200585,58.3222453 C321.684487,52.8215729 323.050358,47.7584304 323.050358,47.7584304 C324.968993,41.4382205 323.840384,35.682315 317.520174,35.682315 C309.732773,35.682315 302.622537,43.5825774 298.220962,58.8187979 L291.787891,81.6166982 C291.223587,83.7610551 289.304951,85.2282467 287.160594,85.2282467 C283.436185,85.2282467 281.630411,82.1810026 282.420437,79.0208976 L289.982117,51.8214226 L283.932,58.958 L278.398341,65.6610169 C277.273334,67.0169492 274.798319,68.1468927 272.323303,68.1468927 C268.948282,68.1468927 266.248266,67.920904 261.973239,66.7909605 C259.948227,71.7627119 257.135709,75.9435028 253.760689,79.1073446 C249.035659,83.6271186 243.185623,86 236.885584,86 C230.473045,86 224.84801,83.5141243 221.472989,78.9943503 C217.310463,73.2316384 216.972961,65.8870056 218.885473,59.4463277 C218.997974,59.1073446 218.997974,59.1073446 218.997974,58.9943503 L213.260438,65.8870056 C213.112162,66.054549 212.958541,66.2090576 212.800268,66.3505947 C212.419633,66.801564 212.036927,67.2573409 211.65274,67.7149018 L211.080382,68.3965851 C210.984911,68.5102952 210.889425,68.6240226 210.793965,68.7377212 L210.221814,69.4191972 L209.759895,69.969397 C205.45927,75.0920111 201.499177,79.8109239 201.499177,79.8109239 C197.210463,84.5510814 193.711776,86.018273 188.971618,86.018273 C184.231461,86.018273 179.717025,82.4067244 179.717025,77.8922887 C179.717025,76.4250971 179.942747,74.8450446 180.39419,73.1521312 L187.391566,47.8712913 C189.423062,40.4224724 186.827261,35.682315 180.168468,35.682315 C172.155345,35.682315 164.255083,44.2597428 160.19209,58.5930761 L153.646159,81.6166982 C152.968993,83.873916 151.163219,85.2282467 149.018862,85.2282467 C148.567419,85.2282467 148.115975,85.2282467 147.664531,85.1153858 C145.181592,84.3253596 143.601539,81.6166982 144.278705,79.1337585 L151.727524,52.0471444 L148.549177,55.8338664 C148.353054,56.2702872 148.094107,56.6880916 147.774631,57.0734463 L139.456071,67.0169492 C133.160944,74.2485876 128.102361,78.7683616 122.144473,81.819209 C116.74865,84.6440678 111.240415,86 104.608049,86 C93.5915782,86 88.0833426,81.5932203 85.2730183,77.8644068 C81.6758032,73.0056497 80.6640864,66.4519774 82.462694,59.559322 L77.4041102,65.6610169 C76.7280866,66.416039 75.9014912,66.8683601 75.0249353,67.0854013 L56.5428075,89.0026525 C45.5957048,101.741379 41.6457193,106.025199 41.5328625,106.137931 C38.0343039,109.85809 32.6171809,112 27.200058,112 C18.3972331,112 13.9958207,108.392573 11.4001159,105.799735 C9.25583806,103.545093 7.78870058,101.064987 7.56298712,100.839523 C6.20870638,98.4721485 6.99870348,95.5411141 9.25583806,94.1883289 C11.6258294,92.8355438 14.4472476,93.3992042 15.9143851,95.8793103 C15.9143851,95.8793103 17.0429524,97.5702918 18.3972331,99.035809 C19.8643706,100.614058 21.8957917,102.192308 27.200058,102.192308 C32.0528973,102.192308 36.5671665,98.6976127 37.9214472,93.9628647 C39.7271549,87.6498674 35.8900261,82.9151194 32.2786108,79.1949602 C29.1186223,75.9257294 26.6357743,73.5583554 23.5886426,70.5145889 C18.1715196,65.1034483 16.365812,60.9323607 15.8015283,56.0848806 L8.69155441,64.5397878 C6.99870348,66.5689655 3.72585834,67.132626 1.69443722,65.4416446 C-0.336983898,63.637931 -0.562697356,60.5941645 1.13015358,58.5649867 C5.98299292,52.7029178 10.1586919,47.9681698 15.2372447,41.8806366 C19.3000869,37.1458886 23.1372157,31.8474801 28.8929089,29.2546419 C32.6171809,27.5636605 36.7928799,27 40.8557222,27 L60.3799363,27 C63.0884977,27 65.2327756,29.1419098 65.2327756,31.8474801 C65.2327756,34.5530504 63.0884977,36.6949602 60.3799363,36.6949602 L58.1228017,36.6949602 C60.492793,41.204244 61.0570766,46.7281167 59.4770824,52.5901857 C57.7842315,58.903183 54.6242431,63.8633952 50.2228306,67.3580902 C47.0628422,69.8381963 43.2257135,71.4164456 38.9371578,72.0928382 C43,75.7002653 45.5957048,79.7586207 47.2885557,85.0570292 L47.3302598,85.0050822 L47.3606853,84.9674072 C47.868075,84.3408985 49.7657609,82.0865385 77.534159,49.2082228 C78.1699281,48.4461425 78.9967133,47.938469 79.8889728,47.6911741 L85.9474961,40.4632768 C90.7812539,34.700565 95.0529468,30.9717514 99.3246398,28.8248588 C103.371507,26.6779661 107.755613,26 112.252132,26 C119.896214,26 127.989948,30.8587571 129.114077,39.220339 C129.563729,41.7062147 129.338903,44.3050847 128.664426,46.9039548 C126.978231,52.440678 123.943081,56.6214689 119.446562,59.220339 C115.062456,61.7062147 109.329394,62.9491525 101.910138,62.9491525 L91.5681447,62.9491525 C90.8936669,66.5649718 91.3433188,69.7288136 93.0295134,71.9887006 C95.0529468,74.8135593 99.0998138,76.2824859 104.608049,76.2824859 C113.488674,76.2824859 121.132756,73.4576271 132.59888,60.2372881 L133.91348,58.6600343 C134.098503,58.1906582 134.355574,57.7475522 134.685529,57.3516063 L152.743272,35.9080367 C154.436185,33.9894016 155.226211,32.7479318 156.919125,30.1521312 C158.499177,27.7820525 159.966369,27.1048871 161.546421,27.1048871 C164.932248,27.1048871 167.189466,29.7006877 166.39944,32.52221 C170.575293,28.1206352 176.105476,26.202 181.861382,26.202 C193.824636,26.202 201.047734,36.698063 196.75902,50.4670919 C191.814877,68.5387843 190.66943,72.639004 190.161746,74.536148 L190.129163,74.6581668 C190.118587,74.6978589 190.108287,74.7366118 190.098227,74.7745504 L190.068736,74.8860481 C190.054319,74.9407005 190.040368,74.9938019 190.026771,75.0457738 L189.994632,75.16904 C189.984107,75.2095458 189.973752,75.2495414 189.963508,75.2892455 L189.933048,75.4077011 C189.928007,75.4273707 189.922979,75.447022 189.917957,75.4666824 L189.887832,75.5849715 L189.85749,75.7047882 C189.826923,75.8258058 189.795503,75.9510814 189.761644,76.0865144 C191.680279,76.0865144 193.147471,74.6193228 195.066106,72.4749659 C195.066106,72.4749659 199.09252,67.6888512 203.342846,62.6388405 L203.910549,61.9643389 C204.161545,61.666131 204.412731,61.3677051 204.663331,61.0699842 L205.16352,60.4757561 C208.739312,56.2277797 212.088419,52.2511006 212.924983,51.2642326 L221.58549,40.9152542 C226.985523,34.5875706 231.035548,30.8587571 234.860572,28.7118644 C238.573095,26.5649718 242.060616,26 245.548138,26 C248.248155,26 249.710664,27.2429379 250.385668,29.1638418 C252.073178,28.3728814 253.760689,27.920904 255.5607,27.920904 C259.385723,27.920904 262.873245,29.6158192 265.23576,32.5536723 C267.260772,35.1525424 269.398285,39.8983051 267.485773,47.920904 C267.260772,49.0508475 266.135765,53.0056497 264.898257,57.5254237 C266.135765,57.9774011 269.623287,58.3163842 271.873301,58.3163842 L282.448366,45.6610169 C282.650224,45.4177245 282.873008,45.2019176 283.112291,45.0135962 C283.265366,44.8326248 283.418508,44.6509659 283.571876,44.469025 L284.077452,43.8692079 C286.186307,41.3670374 288.316818,38.8364167 290.207839,36.5852021 C292.793379,33.537958 293.792338,31.9261925 294.750087,30.4517934 L294.96287,30.1258828 C295.10511,29.909413 295.248958,29.6938476 295.39944,29.4749659 C296.640909,27.6691916 298.220962,27.1048871 299.575293,27.1048871 C303.751146,27.1048871 304.766894,30.4907139 304.428311,32.0707664 C307.701277,28.5720787 312.780017,26.202 318.084479,26.202 C323.388941,26.202 327.903377,28.346357 331.063482,32.9736535 C335.013613,28.4592178 340.882379,26.202 347.089728,26.202 C352.507051,26.202 357.47293,28.2334961 360.971618,32.7479318 C364.696028,37.713811 364.696028,44.2597428 362.890253,50.4670919 L355.892878,76.0865144 C357.811513,76.0865144 359.278705,74.6193228 361.19734,72.4749659 C361.19734,72.4749659 364.516509,68.5295384 368.308841,64.0233665 L368.748355,63.5011277 C368.895452,63.3263469 369.043087,63.1509293 369.191098,62.9750673 L369.757725,62.3018317 L369.989686,62.0262353 L370.453889,61.4747225 C374.863011,56.2364052 379.199781,51.0866982 379.255083,51.0313963 C379.430423,50.834138 379.617469,50.6539052 379.814154,50.4908014 L385.307162,43.9661017 C391.53032,36.6214689 394.811621,32.8926554 398.658664,30.2937853 C403.071449,27.2429379 408.163123,26 413.481095,26 Z M412.725926,36 C403.986801,36.2284123 398.832957,43.5376045 396.592156,51.4178273 C395.583795,54.9582173 394.799515,57.5849582 393.903194,61.1253482 C392.446674,66.0362117 392.782794,71.0612813 394.687475,73.6880223 C396.592156,76.3147632 400.401518,77 402.8664,77 C409.476764,77 415.302847,74.8300836 419.00017,61.810585 L422.697492,48.2200557 C423.369732,44.7938719 422.921572,41.9387187 421.353011,39.7688022 C419.56037,37.3704735 416.423248,36 412.725926,36 Z M243.378855,36 C241.088106,36.4481793 239.140969,37.4565826 237.30837,39.1372549 C234.559471,41.8263305 232.38326,45.859944 230.779736,51.3501401 C229.748899,55.1596639 228.832599,58.2969188 227.801762,61.6582633 C227.343612,63.3389356 227,65.4677871 227,67.0364146 C227,72.4145658 230.550661,76 236.621145,76 C240.515419,76 244.066079,74.5434174 247.15859,71.7422969 C249.449339,69.6134454 251.396476,66.7002801 253,63.1148459 C251.167401,62.1064426 249.563877,60.9859944 248.189427,59.6414566 C243.837004,55.3837535 241.660793,50.6778711 241.660793,44.5154062 C241.660793,41.9383754 242.23348,38.2408964 243.378855,36 Z M41.0850577,37 C33.4912543,37 27.9684882,40.038961 25.7823933,47.9177489 C24.631817,51.7445887 24.5167594,56.2467532 27.0480272,59.5108225 C28.7738916,61.7619048 31.420217,63 34.4117153,63 C42.6958645,63 48.2186306,58.7229437 50.5197832,50.3939394 C52.2456476,43.7532468 49.3692069,37 41.0850577,37 Z M255.025961,38 C253.236645,38 251,40.0425532 251,44.0141844 C251,47.9858156 252.341987,51.7304965 255.361458,54 C255.482027,53.5718085 255.606658,53.1312516 255.732341,52.6872168 L255.984215,51.7971437 C256.445284,50.1664974 256.893499,48.5687542 257.180435,47.4420434 L257.281271,47.0380098 C257.389182,46.5950798 257.461807,46.2553191 257.486271,46.0567376 C258.269096,42.8794326 258.157264,40.2695035 257.150774,39.0212766 C256.47978,38.2269504 255.47329,38 255.025961,38 Z M111.339303,36 C102.780801,36 97.1121826,42.0322581 94.5557469,50.8064516 C94.3334481,51.5741935 94.1111494,52.3419355 94,53 L101.558158,53 C107.226776,53 111.339303,52.2322581 114.118038,50.5870968 C116.452175,49.2709677 118.119415,47.2967742 118.786312,44.2258065 C119.897805,39.4 116.563324,36 111.339303,36 Z" id="Combined-Shape" fill="url(#linearGradient-1)" fill-rule="nonzero"></path>
    </g>
</svg>