<svg width="109px" height="100px" viewBox="0 0 109 100" version="1.1" xmlns="http://www.w3.org/2000/svg">
	<g stroke="none" stroke-width="1" fill="none" fill-rule="evenodd">
		<g transform="translate(-51, -489)">
			<g transform="translate(51, 489)">
				<rect x="0" y="0" width="109" height="100" />
				<g transform="translate(3, 5)">
					<g opacity="0.2" transform="translate(7, 3)" fill="#77A3E3">
						<path d="M15.4166667,22.08 C15.4166667,10.12 24.8516667,0 37,0 C49.1483333,0 58.5833333,10.12 58.5833333,22.08 C58.5833333,34.04 49.1483333,44.16 37,44.16 C24.8516667,44.16 15.4166667,34.04 15.4166667,22.08" />
						<path d="M37.0863333,37.2109333 C17.1988333,37.2109333 0,52.3664 0,72.5757333 L0.0123333333,85.8728 C0.0157250791,89.2529673 2.76813395,91.9932413 6.16666667,92 L67.8333333,92 C71.2390893,92 74,89.2540131 74,85.8666667 L74,72.5757333 C74,52.4093333 57.0108333,37.2109333 37.0863333,37.2109333" />
					</g>
					<circle stroke="#77A3E3" stroke-width="5" stroke-linecap="round" cx="33.5" cy="18.5" r="18.5" />
					<path d="M67,86 L67,73.75 C67,54.77475 51.8031818,37 33.5,37 C15.1907273,37 0,54.77475 0,73.75 L0,86" stroke="#77A3E3" stroke-width="5" stroke-linecap="round" />
				</g>
				<g transform="translate(64, 0)" fill="#F8F7F5" fill-rule="nonzero">
					<path d="M24,3 C21.3235431,3 19.1538461,5.16969698 19.1538461,7.84615385 L19.1538461,19.1538462 L7.84615374,19.1538462 C5.16969691,19.1538462 3,21.3235432 3,24 C3,26.6764568 5.16969691,28.8461538 7.84615374,28.8461538 L19.1538461,28.8461538 L19.1538461,40.1538462 C19.1538461,42.830303 21.3235431,45 24,45 C26.6764569,45 28.8461539,42.830303 28.8461539,40.1538462 L28.8461539,28.8461538 L40.1538463,28.8461538 C42.8303031,28.8461538 45,26.6764568 45,24 C45,21.3235432 42.8303031,19.1538462 40.1538463,19.1538462 L28.8461539,19.1538462 L28.8461539,7.84615385 C28.8461539,5.16969698 26.6764569,3 24,3" opacity="0.2" />
					<path d="M1.81818182,24 C0.814027728,24 0,22.4329966 0,20.5 C0,18.5670034 0.814027728,17 1.81818182,17 L38.1818182,17 C39.1859723,17 40,18.5670034 40,20.5 C40,22.4329966 39.1859723,24 38.1818182,24 L1.81818182,24 Z" />
					<path d="M17,1.81818182 C17,0.814027728 18.5670034,0 20.5,0 C22.4329966,0 24,0.814027728 24,1.81818182 L24,38.1818182 C24,39.1859723 22.4329966,40 20.5,40 C18.5670034,40 17,39.1859723 17,38.1818182 L17,1.81818182 Z" />
				</g>
			</g>
		</g>
	</g>
</svg>