
<svg width="188px" height="160px" viewBox="0 0 188 160" version="1.1" xmlns="http://www.w3.org/2000/svg" xmlns:xlink="http://www.w3.org/1999/xlink">
	<g stroke="none" stroke-width="1" fill="none" fill-rule="evenodd">
		<g transform="translate(-22, -410)">
			<g transform="translate(22, 410)">
				<rect x="0" y="0" width="188" height="160" />
				<g transform="translate(3, 65)">
					<g opacity="0.2" transform="translate(7, 3)" fill="#77A3E3">
						<path d="M15.4166667,22.08 C15.4166667,10.12 24.8516667,0 37,0 C49.1483333,0 58.5833333,10.12 58.5833333,22.08 C58.5833333,34.04 49.1483333,44.16 37,44.16 C24.8516667,44.16 15.4166667,34.04 15.4166667,22.08" />
						<path d="M37.0863333,37.2109333 C17.1988333,37.2109333 0,52.3664 0,72.5757333 L0.0123333333,85.8728 C0.0157250791,89.2529673 2.76813395,91.9932413 6.16666667,92 L67.8333333,92 C71.2390893,92 74,89.2540131 74,85.8666667 L74,72.5757333 C74,52.4093333 57.0108333,37.2109333 37.0863333,37.2109333" />
					</g>
					<circle stroke="#77A3E3" stroke-width="5" stroke-linecap="round" cx="33.5" cy="18.5" r="18.5" />
					<path d="M67,86 L67,73.75 C67,54.77475 51.8031818,37 33.5,37 C15.1907273,37 0,54.77475 0,73.75 L0,86" stroke="#77A3E3" stroke-width="5" stroke-linecap="round" />
				</g>
				<g transform="translate(62, 0)" fill="#F8F7F5" fill-rule="nonzero">
					<path d="M76.9760425,7 L69.9787045,7 C57.2146491,7.00169818 46.066815,15.6377881 42.8710171,28 L41.9893525,28 C31.98972,28 22.7496785,33.3367594 17.7498622,41.9999862 C12.7500459,50.663213 12.7500459,61.3367486 17.7498622,69.9999755 C22.7496785,78.6632023 31.98972,84 41.9893525,84 L97.9680566,84 C112.217043,84.0207191 124.207315,73.329285 125.818618,59.166301 C127.429922,45.003317 118.147893,31.8899223 104.258663,28.7069915 C101.323712,16.0005773 90.0123094,7.00083659 76.9760425,7" opacity="0.2" />
					<path d="M62.9760424,0 L55.9787043,0 C43.2146488,0.00169817768 32.0668147,8.63778469 28.8710167,20.9999836 L27.9893522,20.9999836 C12.5312598,20.9999836 0,33.5360008 0,48.9999617 C0,64.4639226 12.5312598,76.9999699 27.9893522,76.9999699 L83.9680565,76.9999699 C98.2170427,77.020689 110.207315,66.3292591 111.818618,52.1662806 C113.429922,38.0033022 104.147893,24.8899126 90.2586634,21.706983 C87.3237117,9.00057383 76.0123093,0.000836586344 62.9760424,0 M34.2939537,27.9999781 L35.64444,22.7499822 C38.0427042,13.4777897 46.4047823,7.00090792 55.9787043,6.99999453 L62.9760424,6.99999453 C72.8073023,6.99999453 81.267084,13.8249892 83.4362588,23.2749818 L84.4158861,27.5449785 L88.6842623,28.5319777 C99.0707364,30.9482347 105.9978,40.7684547 104.79233,51.367738 C103.58686,61.9670212 94.6316532,69.9795583 83.9680565,69.9999453 L27.9893522,69.9999453 C16.3957829,69.9999453 6.99733804,60.5979324 6.99733804,48.9999617 C6.99733804,37.401991 16.3957829,27.9999781 27.9893522,27.9999781 L34.2939537,27.9999781 Z" />
					<path d="M63,94.4705882 C63,96.4198285 61.4329966,98 59.5,98 C57.5670034,98 56,96.4198285 56,94.4705882 L56,41.5294118 C56,39.5801715 57.5670034,38 59.5,38 C61.4329966,38 63,39.5801715 63,41.5294118 L63,94.4705882 Z" />
					<path d="M44.4996445,58.3263425 C43.0020295,59.4345342 40.9151357,59.1470174 39.7593621,57.6732614 C38.6035886,56.1995054 38.7867101,54.0594741 40.1753141,52.8122798 L57.5003555,38.6736575 C58.9979705,37.5654658 61.0848643,37.8529826 62.2406379,39.3267386 C63.3964114,40.8004946 63.2132899,42.9405259 61.8246859,44.1877202 L44.4996445,58.3263425 Z" />
					<path d="M79.7885957,52.8730129 C81.2198394,54.1079659 81.408584,56.2269925 80.2173203,57.6862835 C79.0260566,59.1455744 76.8750809,59.4302692 75.3314789,58.3329545 L57.4744403,44.3331043 C56.4090641,43.5757504 55.8550836,42.3055373 56.0327687,41.0275183 C56.2104539,39.7494993 57.0910034,38.6708315 58.3242991,38.2204072 C59.5575949,37.7699829 60.9437293,38.0208125 61.9315572,38.8731628 L79.7885957,52.8730129 Z" />
				</g>
				<g transform="translate(49, 98)">
					<g opacity="0.2" transform="translate(5, 2)" fill="#F8F7F5">
						<path d="M10,14.4 C10,6.6 16.12,0 24,0 C31.88,0 38,6.6 38,14.4 C38,22.2 31.88,28.8 24,28.8 C16.12,28.8 10,22.2 10,14.4" />
						<path d="M24.056,24.268 C11.156,24.268 0,34.152 0,47.332 L0.008,56.004 C0.0102000513,58.208457 1.79554635,59.9955922 4,60 L44,60 C46.209139,60 48,58.209139 48,56 L48,47.332 C48,34.18 36.98,24.268 24.056,24.268" />
					</g>
					<circle stroke="#F8F7F5" stroke-width="3" stroke-linecap="round" cx="22" cy="12" r="12" />
					<path d="M44,56 L44,48 C44,35.608 34.02,24 22,24 C9.976,24 0,35.608 0,48 L0,56" stroke="#F8F7F5" stroke-width="3" stroke-linecap="round" />
				</g>
			</g>
		</g>
	</g>
</svg>