
<svg width="225px" height="237px" viewBox="0 0 225 237" version="1.1" xmlns="http://www.w3.org/2000/svg">
	<g stroke="none" stroke-width="1" fill="none" fill-rule="evenodd">
		<g transform="translate(-48, -146)" fill-rule="nonzero">
			<g transform="translate(48, 146)">
				<g transform="translate(0, 64)" fill="#77A3E3">
					<g opacity="0.2" transform="translate(11, 4)">
						<path d="M95.2915855,59.1123077 C97.6946366,63.1177246 96.3934694,68.3090247 92.3839248,70.7130769 L75.3109549,80.9515385 L75.3109549,156.538462 C75.3109549,161.21164 71.5156078,165 66.8338099,165 C62.1520121,165 58.356665,161.21164 58.356665,156.538462 L58.356665,102.096923 L41.2752179,91.8669231 C37.3570365,89.4195064 36.1252563,84.2901946 38.5060427,80.3356748 C40.8868291,76.3811551 46.0025234,75.0592309 50.0066772,77.3638462 L58.356665,82.3561538 L58.356665,46.5384615 C58.356665,41.8652829 62.1520121,38.0769231 66.8338099,38.0769231 C71.5156078,38.0769231 75.3109549,41.8652829 75.3109549,46.5384615 L75.3109549,61.2107692 L83.6609426,56.21 C85.5888369,55.0553714 87.8972932,54.7124857 90.0784673,55.2567754 C92.2596415,55.801065 94.1348591,57.1879437 95.2915855,59.1123077" />
						<path d="M65.9860954,8.46153846 C59.3569681,8.46153846 53.270378,11.11 48.5740397,15.5607692 C45.9461248,18.0569231 43.7590214,21.12 42.1907496,24.5807692 C41.2658423,26.6334462 38.892764,27.6039849 36.7908083,26.7892308 C22.9221991,25.7484615 10.1980046,36.7146154 8.63820993,52.4361538 C7.57008966,63.1823077 12.0799308,73.0823077 19.4889554,78.9038462 C20.2950032,79.5326739 20.8459991,80.4312775 21.040273,81.4338462 C21.4236247,82.2988897 21.5042439,83.2675192 21.2691559,84.1838462 C20.5062128,87.1876923 20.2264671,90.42 20.51469,93.7623077 C21.7014903,107.334615 34.671522,116.836923 46.3869363,115.652308 C50.8883003,115.195385 54.0502754,114.450769 56.4323531,113.08 C58.5685936,111.844615 60.3996569,109.915385 61.8831573,106.395385 C62.1893112,105.215118 62.9906842,104.224055 64.0818663,103.676227 C65.1730485,103.128399 66.447955,103.077065 67.5797987,103.535385 C68.8354125,104.030104 69.7798574,105.092219 70.1229422,106.395385 C71.6064425,109.915385 73.4290287,111.844615 75.5737464,113.08 C77.9473469,114.450769 81.109322,115.195385 85.6191631,115.652308 C97.3176231,116.836923 110.296132,107.334615 111.482932,93.7623077 C111.770175,90.5526443 111.515137,87.3176189 110.728466,84.1923077 C110.492092,83.2697243 110.575758,82.2944264 110.965826,81.4253846 C111.158362,80.4265543 111.706352,79.5309467 112.508667,78.9038462 C119.926169,73.0823077 124.43601,63.1823077 123.359412,52.4361538 C121.799618,36.6976923 109.049992,25.7230769 95.1644283,26.7976923 C93.0650291,27.6006826 90.7027548,26.6278063 89.7814413,24.5807692 C88.2543121,21.190364 86.0837523,18.127291 83.389674,15.5607692 C78.7249918,11.0392704 72.488215,8.49517768 65.9860954,8.46153846 M96.07996,18.2769231 C94.2592273,14.9973089 91.9496753,12.0129724 89.2304268,9.42615385 L86.314289,12.4892308 L89.2304268,9.42615385 C82.9896716,3.41023415 74.6619723,0.0331451837 65.9860954,0 C57.3071102,0.0300883404 48.9756673,3.40746371 42.7332869,9.42615385 C40.0134503,12.0092516 37.7037711,14.9908993 35.8837538,18.2684615 C17.5815978,17.7269231 2.11080832,32.3992308 0.194973567,51.6069231 C-1.06812103,64.3838462 3.89100876,76.4330769 12.5970366,84.1669231 C11.9390536,87.5664827 11.7621351,91.0413729 12.0714536,94.49 C13.6821112,112.944615 31.0093954,125.713077 47.2346508,124.071538 C52.0751006,123.580769 56.7036217,122.692308 60.6794027,120.399231 C62.7139175,119.223077 64.4771636,117.742308 66.0030497,115.906154 C67.5289358,117.742308 69.292182,119.223077 71.3266967,120.399231 C75.3024777,122.692308 79.9225217,123.580769 84.7629715,124.071538 C100.988227,125.713077 118.315511,112.944615 119.934646,94.4984615 C120.239823,90.9446154 120.044849,87.4753846 119.409063,84.1753846 C128.115091,76.4330769 133.07422,64.3838462 131.802649,51.5984615 C129.895291,32.3823077 114.39907,17.71 96.07996,18.2684615" />
						<path d="M96.5038172,38.0769231 C96.5038172,56.7769231 83.2116539,71.9230769 66.8338099,71.9230769 C50.4474888,71.9230769 37.1638026,56.7769231 37.1638026,38.0769231 C37.1638026,19.3769231 50.4474888,4.23076923 66.8338099,4.23076923 C83.2116539,4.23076923 96.5038172,19.3769231 96.5038172,38.0769231" />
						<path d="M75.3109549,88.8461538 C75.3109549,107.546154 62.0187916,122.692308 45.6409476,122.692308 C29.2546264,122.692308 15.9709403,107.546154 15.9709403,88.8461538 C15.9709403,70.1461538 29.2546264,55 45.6409476,55 C62.0187916,55 75.3109549,70.1461538 75.3109549,88.8461538" />
						<path d="M117.69668,88.8461538 C117.69668,107.546154 104.404516,122.692308 88.0266723,122.692308 C71.631874,122.692308 58.356665,107.546154 58.356665,88.8461538 C58.356665,70.1461538 71.631874,55 88.0266723,55 C104.404516,55 117.69668,70.1461538 117.69668,88.8461538" />
						<path d="M126.173824,48.2307692 C126.173824,63.1907692 112.890138,75.3076923 96.5038172,75.3076923 C80.1090189,75.3076923 66.8338099,63.1907692 66.8338099,48.2307692 C66.8338099,33.2707692 80.1090189,21.1538462 96.5038172,21.1538462 C112.890138,21.1538462 126.173824,33.2707692 126.173824,48.2307692 M66.8338099,48.2307692 C66.8338099,63.1907692 53.5501238,75.3076923 37.1638026,75.3076923 C20.7774815,75.3076923 7.49379536,63.1907692 7.49379536,48.2307692 C7.49379536,33.2707692 20.7774815,21.1538462 37.1638026,21.1538462 C53.5501238,21.1538462 66.8338099,33.2707692 66.8338099,48.2307692" />
					</g>
					<path d="M65.9830449,0 C74.662258,0.0307911913 82.9937707,3.38904607 89.236928,9.37314376 C91.9532948,11.9460178 94.2600704,14.9135396 96.0783001,18.1741387 C114.398257,17.6188178 129.895194,32.2086125 131.80264,51.3167 C133.07427,64.0301831 128.114911,76.0116523 119.408481,83.7104194 C120.067051,87.0907938 120.243982,90.54622 119.934088,93.9754422 C118.323356,112.31786 100.995271,125.014515 84.7692662,123.382208 C79.9977821,122.902015 75.4397099,122.038933 71.4988837,119.831028 L71.499968,155.795707 C71.499968,158.117674 69.5986872,160 67.2533384,160 C64.9079896,160 63.0067088,158.117674 63.0067088,155.795707 L63.0076476,118.166994 C62.2792505,118.735852 61.508632,119.253331 60.693062,119.722139 C56.7170974,122.010734 52.0883623,122.894199 47.2392114,123.382208 C31.0132062,125.014515 13.6851212,112.31786 12.0743893,93.9670283 C11.7665948,90.5381035 11.9406376,87.083356 12.591519,83.7020055 C3.88508884,76.0116523 -1.07427011,64.0301831 0.197360395,51.3251139 C2.10480614,32.2254404 17.5763106,17.6272318 35.8877898,18.1657248 C37.7274152,14.8758691 40.0417827,11.9057436 42.7291619,9.37314376 C48.9718307,3.38830107 57.3036587,0.0299191319 65.9830449,0 Z M65.9830449,8.4139531 C59.3536113,8.4139531 53.2667399,11.0475204 48.5701846,15.4732598 C45.9421482,17.9553759 43.7549438,21.0012269 42.1865995,24.4425338 C41.2618774,26.4792248 38.8945319,27.4434432 36.7948862,26.6385755 C22.9171587,25.6036593 10.2008537,36.5081425 8.63250938,52.1412674 C7.57281729,62.8269878 12.0828668,72.671313 19.4922338,78.4601127 C20.33151,79.116401 20.8486397,80.016694 21.0351455,80.9758847 C21.4213441,81.8350977 21.5049555,82.7983082 21.2725165,83.7104194 C20.4820155,86.8203845 20.2240928,90.0401475 20.5095382,93.2350144 C21.6963934,106.730995 34.675502,116.179864 46.3829802,115.001911 C50.9015072,114.547558 54.0636284,113.80713 56.4458162,112.435655 C58.5736779,111.207218 60.4048258,109.288837 61.8883947,105.788632 C62.0831945,105.053248 62.4725461,104.392558 63.0055672,103.868742 L63.0067088,99.3152332 L43.8374229,87.938416 C41.8251136,86.744925 41.171073,84.1623735 42.3765823,82.1701258 C43.5820915,80.1778782 46.1906488,79.530358 48.2029581,80.723849 L63.0067088,89.5192302 L63.0067088,46.4840859 C63.0067088,44.1621189 64.9079896,42.2797927 67.2533384,42.2797927 C69.5986872,42.2797927 71.499968,44.1621189 71.499968,46.4840859 L71.499968,68.489356 L86.3037187,59.6939748 C87.2700128,59.1206364 88.4268159,58.9509126 89.5195336,59.2221571 C90.6122514,59.4934016 91.5513306,60.1833846 92.1300945,61.1402517 C92.7092064,62.0969123 92.8806392,63.2421828 92.6066634,64.3240067 C92.3326875,65.4058307 91.6357564,66.3355478 90.6692539,66.9085418 L71.499968,78.2937676 L71.4992647,108.465078 C72.6898726,110.345891 74.0473633,111.564329 75.5626614,112.435655 C77.9363716,113.80713 81.1069703,114.547558 85.6170198,115.001911 C97.324498,116.179864 110.303607,106.730995 111.490462,93.2350144 C111.775907,90.0401475 111.517984,86.8203845 110.727483,83.7104194 C110.495058,82.7947776 110.581708,81.8280153 110.973332,80.9674707 C111.163681,79.9754783 111.70858,79.0850815 112.507766,78.4601127 C119.925611,72.671313 124.43566,62.8269878 123.367491,52.1412674 C121.807624,36.4913146 109.048931,25.5784174 95.1627261,26.6469895 C93.0632299,27.445464 90.7008464,26.4780589 89.7794903,24.4425338 C88.2549959,21.0717918 86.0872266,18.0259616 83.3959052,15.4732598 C78.7288973,10.9751767 72.488402,8.44523223 65.9830449,8.4139531 Z" />
				</g>
				<g transform="translate(25, 0)" fill="#F8F7F5">
					<g opacity="0.2" transform="translate(15, 5)">
						<path d="M133.552601,83.1154872 C136.920513,88.7473461 135.096908,96.0466287 129.47747,99.4268718 L105.549444,113.822769 L105.549444,220.102564 C105.549444,226.673337 100.230208,232 93.6685972,232 C87.1069866,232 81.7877502,226.673337 81.7877502,220.102564 L81.7877502,143.554462 L57.8478433,129.170462 C52.3564527,125.729245 50.6300941,118.517122 53.9668023,112.956828 C57.3035105,107.396533 64.4732335,105.537828 70.0851158,108.778256 L81.7877502,115.797744 L81.7877502,65.4358974 C81.7877502,58.865125 87.1069866,53.5384615 93.6685972,53.5384615 C100.230208,53.5384615 105.549444,58.865125 105.549444,65.4358974 L105.549444,86.0660513 L117.252079,79.0346667 C119.954052,77.4111889 123.189388,76.9290708 126.246337,77.6943751 C129.303285,78.4596793 131.931431,80.4097147 133.552601,83.1154872" />
						<path d="M92.4805125,11.8974359 C83.1896901,11.8974359 74.6592419,15.6213333 68.0772526,21.8793846 C64.3941901,25.3891282 61.3289315,29.696 59.1309748,34.5620513 C57.8347032,37.4482395 54.5087981,38.8128757 51.5628752,37.6672821 C32.1258094,36.2038974 14.292658,51.6229744 12.1065821,73.7284103 C10.6095954,88.8381538 16.930206,102.758154 27.3140663,110.94359 C28.4437545,111.82776 29.2159836,113.091251 29.4882614,114.500923 C30.0255347,115.717227 30.1385237,117.079178 29.8090442,118.36759 C28.739768,122.591179 28.3477,127.136 28.7516488,131.835487 C30.4149674,150.918974 48.5926634,164.279795 65.0119941,162.614154 C71.3207239,161.971692 75.7522799,160.924718 79.0907979,158.997333 C82.0847713,157.260308 84.6510343,154.547692 86.7301825,149.598359 C87.1592619,147.938833 88.2823983,146.545338 89.8117066,145.775058 C91.3410149,145.004779 93.1278157,144.932601 94.7141118,145.577026 C96.4738736,146.272631 97.7975274,147.76603 98.2783659,149.598359 C100.357514,154.547692 102.911896,157.260308 105.917751,158.997333 C109.244388,160.924718 113.675944,161.971692 119.996554,162.614154 C136.392123,164.279795 154.5817,150.918974 156.245019,131.835487 C156.647594,127.322506 156.290154,122.773864 155.187623,118.379487 C154.856342,117.082279 154.973601,115.710951 155.520287,114.489026 C155.790128,113.08461 156.558145,111.825331 157.682601,110.94359 C168.078342,102.758154 174.398953,88.8381538 172.890086,73.7284103 C170.70401,51.5991795 152.835216,36.1682051 133.374388,37.6791795 C130.432048,38.8082325 127.121285,37.4403095 125.83005,34.5620513 C123.689756,29.7949361 120.647683,25.4880697 116.871892,21.8793846 C110.334269,15.5218832 101.593332,11.9447347 92.4805125,11.8974359 M134.65752,25.6984615 C132.105735,21.0871253 128.868863,16.8909673 125.057795,13.2537436 L120.970784,17.5606154 L125.057795,13.2537436 C116.311282,4.79499589 104.639885,0.0466041371 92.4805125,0 C80.3167833,0.0423060301 68.6401397,4.79110049 59.891349,13.2537436 C56.0794569,16.8857356 52.8424064,21.0781129 50.2916246,25.6865641 C24.6408758,24.9251282 2.95832985,45.5552821 0.273258408,72.5624615 C-1.49698781,90.5275897 5.45330773,107.469538 17.6549377,118.343795 C16.7327646,123.123782 16.4848106,128.009688 16.9183252,132.858667 C19.1756861,158.806974 43.4601375,176.760205 66.2000788,174.452103 C72.9840425,173.762051 79.470985,172.512821 85.0431023,169.288615 C87.8945056,167.634872 90.3657218,165.552821 92.5042742,162.971077 C94.6428267,165.552821 97.1140429,167.634872 99.9654462,169.288615 C105.537563,172.512821 112.012625,173.762051 118.796589,174.452103 C141.53653,176.760205 165.820982,158.806974 168.090223,132.870564 C168.517934,127.873641 168.244674,122.995692 167.353611,118.355692 C179.555241,107.469538 186.505536,90.5275897 184.723409,72.5505641 C182.050219,45.5314872 160.33203,24.9013333 134.65752,25.6865641" />
						<path d="M135.251562,53.5384615 C135.251562,79.8317949 116.622394,101.128205 93.6685972,101.128205 C70.7029198,101.128205 52.0856325,79.8317949 52.0856325,53.5384615 C52.0856325,27.2451282 70.7029198,5.94871795 93.6685972,5.94871795 C116.622394,5.94871795 135.251562,27.2451282 135.251562,53.5384615" />
						<path d="M105.549444,124.923077 C105.549444,151.21641 86.9202761,172.512821 63.9664796,172.512821 C41.0008022,172.512821 22.3835148,151.21641 22.3835148,124.923077 C22.3835148,98.6297436 41.0008022,77.3333333 63.9664796,77.3333333 C86.9202761,77.3333333 105.549444,98.6297436 105.549444,124.923077" />
						<path d="M164.95368,124.923077 C164.95368,151.21641 146.324511,172.512821 123.370715,172.512821 C100.393157,172.512821 81.7877502,151.21641 81.7877502,124.923077 C81.7877502,98.6297436 100.393157,77.3333333 123.370715,77.3333333 C146.324511,77.3333333 164.95368,98.6297436 164.95368,124.923077" />
						<path d="M176.834527,67.8153846 C176.834527,88.8500513 158.217239,105.887179 135.251562,105.887179 C112.274004,105.887179 93.6685972,88.8500513 93.6685972,67.8153846 C93.6685972,46.7807179 112.274004,29.7435897 135.251562,29.7435897 C158.217239,29.7435897 176.834527,46.7807179 176.834527,67.8153846 M93.6685972,67.8153846 C93.6685972,88.8500513 75.0513099,105.887179 52.0856325,105.887179 C29.1199551,105.887179 10.5026677,88.8500513 10.5026677,67.8153846 C10.5026677,46.7807179 29.1199551,29.7435897 52.0856325,29.7435897 C75.0513099,29.7435897 93.6685972,46.7807179 93.6685972,67.8153846" />
					</g>
					<path d="M92.4762372,0 C104.640286,0.0433001128 116.317027,4.76584603 125.066907,13.1809834 C128.873936,16.7990875 132.106917,20.972165 134.655193,25.5573826 C160.33089,24.7764625 182.050082,45.2933613 184.723396,72.1641094 C186.505606,90.042445 179.554989,106.891386 167.352795,117.717777 C168.275792,122.471429 168.523763,127.330622 168.089442,132.152966 C165.831977,157.946991 141.546403,175.801662 118.805411,173.50623 C112.118491,172.830998 105.730636,171.61739 100.207728,168.512922 L100.208288,219.087713 C100.208288,222.352979 97.5436146,225 94.2565728,225 C90.9695309,225 88.3048571,222.352979 88.3048571,219.087713 L88.3058963,166.172552 C87.2851183,166.972423 86.2051766,167.700056 85.0622461,168.359258 C79.4898713,171.577595 73.002629,172.819967 66.2064705,173.50623 C43.4654784,175.801662 19.1799048,157.946991 16.9224395,132.141134 C16.491061,127.319208 16.7349845,122.460969 17.6472047,117.705945 C5.44501088,106.891386 -1.50560583,90.042445 0.276603584,72.1759415 C2.9499177,45.3170256 24.6334656,24.7882947 50.2972811,25.5455504 C52.8755441,20.9191909 56.1191652,16.742452 59.8855677,13.1809834 C68.6347628,4.76479839 80.3119458,0.0420737792 92.4762372,0 Z M92.4762372,11.8321216 C83.1849855,11.8321216 74.6541431,15.5355756 68.0718496,21.7592715 C64.3886169,25.2497474 61.3232167,29.5329754 59.1251584,34.3723131 C57.8291463,37.2364098 54.5112757,38.592342 51.5685905,37.4604968 C32.1187451,36.0051459 14.296651,51.3395754 12.0985927,73.3236573 C10.6134182,88.3504516 16.9343209,102.194034 27.3186611,110.334533 C28.4949193,111.257439 29.2196844,112.523476 29.4810752,113.872338 C30.0223384,115.080606 30.139521,116.435121 29.8137543,117.717777 C28.7058551,122.091166 28.3443725,126.618957 28.7444286,131.111739 C30.4078241,150.090462 48.5982415,163.377934 65.0064495,161.721437 C71.3392336,161.082503 75.7709943,160.041276 79.1096666,158.11264 C82.091897,156.385151 84.6582786,153.687427 86.7375229,148.765264 C87.0106596,147.730669 87.5567071,146.801206 88.3042576,146.064432 L88.3048571,139.662047 L61.4388123,123.663397 C58.6185305,121.985051 57.7018826,118.353338 59.3914221,115.551739 C61.0809616,112.750141 64.7368942,111.839566 67.5571761,113.517913 L88.3048571,125.886417 L88.3048571,65.3682457 C88.3048571,62.1029797 90.9695309,59.4559585 94.2565728,59.4559585 C97.5436146,59.4559585 100.208288,62.1029797 100.208288,65.3682457 L100.208288,96.3131569 L120.955969,83.9446521 C122.310245,83.1383949 123.931522,82.8997209 125.462983,83.2811585 C126.994443,83.662596 128.310577,84.6328847 129.121723,85.9784789 C129.933357,87.323783 130.173623,88.9343195 129.789642,90.4556345 C129.40566,91.9769494 128.428901,93.2843641 127.074333,94.0901369 L100.208288,110.100611 L100.208397,152.53075 C101.876789,155.174658 103.778966,156.887606 105.902215,158.11264 C109.229006,160.041276 113.672648,161.082503 119.993551,161.721437 C136.401759,163.377934 154.592176,150.090462 156.255571,131.111739 C156.655628,126.618957 156.294145,122.091166 155.186246,117.717777 C154.860497,116.430156 154.981939,115.070646 155.530806,113.860506 C155.797584,112.465516 156.561267,111.213396 157.681339,110.334533 C168.077561,102.194034 174.398463,88.3504516 172.901407,73.3236573 C170.71523,51.3159112 152.833729,35.9696495 133.372003,37.472329 C130.429527,38.5951837 127.118611,37.2347703 125.827316,34.3723131 C123.690714,29.6322072 120.652552,25.3490085 116.880625,21.7592715 C110.339742,15.4338422 101.593594,11.8761078 92.4762372,11.8321216 Z" />
				</g>
				<g transform="translate(124, 114)" fill="#77A3E3">
					<g opacity="0.2" transform="translate(8, 3)">
						<path d="M67.1372534,41.5577436 C68.8303121,44.373673 67.9135807,48.0233144 65.0886743,49.7134359 L53.0599909,56.9113846 L53.0599909,110.051282 C53.0599909,113.336668 50.3859964,116 47.087457,116 C43.7889176,116 41.1149231,113.336668 41.1149231,110.051282 L41.1149231,71.7772308 L29.0802672,64.5852308 C26.3197303,62.8646227 25.4518851,59.258561 27.1292574,56.4784138 C28.8066296,53.6982666 32.4108687,52.7689139 35.2319771,54.3891282 L41.1149231,57.8988718 L41.1149231,32.7179487 C41.1149231,29.4325625 43.7889176,26.7692308 47.087457,26.7692308 C50.3859964,26.7692308 53.0599909,29.4325625 53.0599909,32.7179487 L53.0599909,43.0330256 L58.9429368,39.5173333 C60.301226,38.7055945 61.9276384,38.4645354 63.4643747,38.8471875 C65.001111,39.2298397 66.3222871,40.2048574 67.1372534,41.5577436" />
						<path d="M46.4902036,5.94871795 C41.8196821,5.94871795 37.5314027,7.81066667 34.2226189,10.9396923 C32.3711334,12.6945641 30.8302196,14.848 29.7253008,17.2810256 C29.0736616,18.7241197 27.4017201,19.4064379 25.9207967,18.833641 C16.1497312,18.1019487 7.18495778,25.8114872 6.08601154,36.8642051 C5.33347226,44.4190769 8.51086032,51.3790769 13.730855,55.4717949 C14.2987523,55.9138798 14.6869539,56.5456254 14.8238287,57.2504615 C15.0939174,57.8586133 15.1507173,58.5395892 14.9850871,59.1837949 C14.447559,61.2955897 14.2504654,63.568 14.4535316,65.9177436 C15.2896863,75.4594872 24.4276632,82.1398974 32.6817051,81.3070769 C35.8531207,80.9858462 38.0808758,80.462359 39.7591579,79.4986667 C41.2642364,78.6301538 42.5543037,77.2738462 43.5994972,74.7991795 C43.8151965,73.9694164 44.3798002,73.272669 45.1485876,72.8875291 C45.9173751,72.5023893 46.8156047,72.4663004 47.61304,72.7885128 C48.497677,73.1363154 49.1630814,73.8830149 49.4048002,74.7991795 C50.4499936,77.2738462 51.7340884,78.6301538 53.2451395,79.4986667 C54.917449,80.462359 57.1452041,80.9858462 60.3225922,81.3070769 C68.564689,82.1398974 77.7086385,75.4594872 78.5447932,65.9177436 C78.7471689,63.6612529 78.5674829,61.3869321 78.0132377,59.1897436 C77.8467015,58.5411395 77.9056479,57.8554756 78.1804686,57.2445128 C78.3161185,56.5423048 78.7022029,55.9126656 79.2674698,55.4717949 C84.493437,51.3790769 87.6708251,44.4190769 86.9123133,36.8642051 C85.813367,25.7995897 76.830676,18.0841026 67.0476654,18.8395897 C65.5685433,19.4041163 63.9042136,18.7201547 63.2551063,17.2810256 C62.1791745,14.897468 60.6499164,12.7440349 58.7518158,10.9396923 C55.4653351,7.7609416 51.0712424,5.97236734 46.4902036,5.94871795 M67.6926991,12.8492308 C66.4099101,10.5435626 64.7827258,8.44548363 62.8668916,6.62687179 L60.81234,8.78030769 L62.8668916,6.62687179 C58.4699959,2.39749795 52.6027532,0.0233020686 46.4902036,0 C40.375464,0.0211530151 34.5055838,2.39555024 30.107543,6.62687179 C28.1912945,8.44286779 26.5640205,10.5390565 25.2817356,12.8432821 C12.3870348,12.4625641 1.48716041,22.777641 0.13736774,36.2812308 C-0.752539816,45.2637949 2.74139254,53.7347692 8.87518488,59.1718974 C8.41160597,61.5618909 8.28695885,64.004844 8.50488778,66.4293333 C9.63966923,79.4034872 21.8475286,88.3801026 33.2789585,87.2260513 C36.6892754,86.8810256 39.9502789,86.2564103 42.7513974,84.6443077 C44.1848055,83.8174359 45.4270926,82.7764103 46.5021487,81.4855385 C47.5772048,82.7764103 48.8194918,83.8174359 50.2529,84.6443077 C53.0540184,86.2564103 56.3090494,86.8810256 59.7193663,87.2260513 C71.1507962,88.3801026 83.3586556,79.4034872 84.4994095,66.4352821 C84.7144208,63.9368205 84.5770525,61.4978462 84.1291124,59.1778462 C90.2629048,53.7347692 93.7568371,45.2637949 92.8609571,36.2752821 C91.5171369,22.7657436 80.5993449,12.4506667 67.6926991,12.8432821" />
						<path d="M67.9913258,26.7692308 C67.9913258,39.9158974 58.6263926,50.5641026 47.087457,50.5641026 C35.5425489,50.5641026 26.1835882,39.9158974 26.1835882,26.7692308 C26.1835882,13.6225641 35.5425489,2.97435897 47.087457,2.97435897 C58.6263926,2.97435897 67.9913258,13.6225641 67.9913258,26.7692308" />
						<path d="M53.0599909,62.4615385 C53.0599909,75.6082051 43.6950577,86.2564103 32.1561222,86.2564103 C20.6112141,86.2564103 11.2522534,75.6082051 11.2522534,62.4615385 C11.2522534,49.3148718 20.6112141,38.6666667 32.1561222,38.6666667 C43.6950577,38.6666667 53.0599909,49.3148718 53.0599909,62.4615385" />
						<path d="M82.9226606,62.4615385 C82.9226606,75.6082051 73.5577274,86.2564103 62.0187918,86.2564103 C50.4679112,86.2564103 41.1149231,75.6082051 41.1149231,62.4615385 C41.1149231,49.3148718 50.4679112,38.6666667 62.0187918,38.6666667 C73.5577274,38.6666667 82.9226606,49.3148718 82.9226606,62.4615385" />
						<path d="M88.8951945,33.9076923 C88.8951945,44.4250256 79.5362339,52.9435897 67.9913258,52.9435897 C56.4404451,52.9435897 47.087457,44.4250256 47.087457,33.9076923 C47.087457,23.390359 56.4404451,14.8717949 67.9913258,14.8717949 C79.5362339,14.8717949 88.8951945,23.390359 88.8951945,33.9076923 M47.087457,33.9076923 C47.087457,44.4250256 37.7284963,52.9435897 26.1835882,52.9435897 C14.6386801,52.9435897 5.27971946,44.4250256 5.27971946,33.9076923 C5.27971946,23.390359 14.6386801,14.8717949 26.1835882,14.8717949 C37.7284963,14.8717949 47.087457,23.390359 47.087457,33.9076923" />
					</g>
					<path d="M46.4880544,0 C52.6029545,0.0217462789 58.4728839,2.39351378 62.871472,6.61978278 C64.7852759,8.43687508 66.4105041,10.5326873 67.6915296,12.8354855 C80.5987719,12.4432901 91.5170684,22.7473326 92.8609506,36.2424194 C93.7568721,45.2213168 90.2627783,53.6832295 84.1287025,59.1204837 C84.5926952,61.5078731 84.7173509,63.9482679 84.4990167,66.3701561 C83.3641829,79.3244886 71.1557594,88.2915014 59.7238012,87.1386846 C56.3620171,86.7995426 53.1505964,86.1899757 50.374073,84.6305846 L50.3749774,110.030718 C50.3749774,111.670607 49.0354387,113 47.3830339,113 C45.7306291,113 44.3910903,111.670607 44.3910903,110.030718 L44.3923053,83.455006 C43.8789533,83.8569327 43.3358337,84.2225456 42.761021,84.5537605 C39.9597731,86.1700809 36.6986189,86.7940281 33.2821716,87.1386846 C21.8502134,88.2915014 9.64178996,79.3244886 8.50695607,66.3642137 C8.29010091,63.9425356 8.41272193,61.5026202 8.87129748,59.1145414 C2.73722169,53.6832295 -0.75687212,45.2213168 0.139049369,36.2483617 C1.4829316,22.7592173 12.3833097,12.4492324 25.2845791,12.8295431 C26.5806789,10.5060825 28.211256,8.40843145 30.1046368,6.61978278 C34.5028807,2.39298763 40.3730322,0.0211303869 46.4880544,0 Z M46.4880544,5.94235438 C41.817317,5.94235438 37.5288395,7.8023113 34.2199028,10.9279897 C32.3683317,12.6809842 30.8273468,14.8321165 29.7223769,17.2625395 C29.0708681,18.7009525 27.4029656,19.3819318 25.9236698,18.813494 C16.14618,18.0825844 7.18696508,25.7838757 6.08199524,36.8247701 C5.335394,44.3715602 8.51292888,51.3241148 13.7331648,55.4124546 C14.3244729,55.8759582 14.6888143,56.5117902 14.8202162,57.1892186 C15.0923106,57.7960377 15.1512187,58.4763051 14.9874548,59.1204837 C14.4305109,61.3168965 14.2487927,63.5908541 14.4499019,65.8472289 C15.2860953,75.3787653 24.4304673,82.0520293 32.6789178,81.2200997 C35.8624255,80.8992125 38.0902836,80.3762853 39.7686432,79.4076816 C41.2678185,78.5400978 42.5579455,77.185241 43.6031872,74.7132216 C43.7404855,74.1936561 44.0149602,73.726884 44.3907211,73.3568704 L44.3910903,70.1413834 L30.885457,62.1065063 C29.4676937,61.2636033 29.0068924,59.4396763 29.8562284,58.0326514 C30.7055645,56.6256265 32.5434117,56.1683153 33.961175,57.0112184 L44.3910903,63.2229563 L44.3910903,32.8293856 C44.3910903,31.1894965 45.7306291,29.8601036 47.3830339,29.8601036 C49.0354387,29.8601036 50.3749774,31.1894965 50.3749774,32.8293856 L50.3749774,48.3706077 L60.8048927,42.1588697 C61.4856908,41.7539495 62.3007112,41.634082 63.0705805,41.8256485 C63.8404498,42.0172149 64.5020738,42.5045154 64.9098393,43.1803027 C65.3178499,43.8559443 65.4386322,44.6647916 65.2456037,45.4288298 C65.0525753,46.1928679 64.5615557,46.8494806 63.8806107,47.2541577 L50.3749774,55.2949734 L50.3741957,76.6030078 C51.2131017,77.9315896 52.1696118,78.7922374 53.2373296,79.4076816 C54.9097164,80.3762853 57.1435473,80.8992125 60.3210822,81.2200997 C68.5695327,82.0520293 77.7139047,75.3787653 78.5500981,65.8472289 C78.7512073,63.5908541 78.5694891,61.3168965 78.0125452,59.1204837 C77.8487906,58.4738117 77.9098396,57.7910358 78.1857566,57.1832762 C78.3198663,56.4826815 78.703772,55.8538388 79.2668352,55.4124546 C84.4930439,51.3241148 87.6705788,44.3715602 86.9180048,36.8247701 C85.8190077,25.7719909 76.8299288,18.0647573 67.0464661,18.8194363 C65.5672756,19.3833589 63.9028691,18.7001291 63.2537318,17.2625395 C62.1796562,14.881953 60.6523642,12.7308354 58.756206,10.9279897 C55.4680867,7.75121854 51.0713742,5.96444526 46.4880544,5.94235438 Z" />
				</g>
			</g>
		</g>
	</g>
</svg>